HIERARCHY
ROOT Hips
{
	OFFSET 0.00000 0.00000 0.00000
	CHANNELS 6 Xposition Yposition Zposition Zrotation Yrotation Xrotation 
	JOINT LHipJoint
	{
		OFFSET 0 0 0
		CHANNELS 3 Zrotation Yrotation Xrotation
		JOINT LeftUpLeg
		{
			OFFSET 1.62964 -1.40469 0.78906
			CHANNELS 3 Zrotation Yrotation Xrotation
			JOINT LeftLeg
			{
				OFFSET 2.29640 -6.30932 0.00000
				CHANNELS 3 Zrotation Yrotation Xrotation
				JOINT LeftFoot
				{
					OFFSET 2.29451 -6.30412 0.00000
					CHANNELS 3 Zrotation Yrotation Xrotation
					JOINT LeftToeBase
					{
						OFFSET 0.03611 -0.09921 1.56387
						CHANNELS 3 Zrotation Yrotation Xrotation
						End Site
						{
							OFFSET 0.00000 -0.00000 0.80291
						}
					}
				}
			}
		}
	}
	JOINT RHipJoint
	{
		OFFSET 0 0 0
		CHANNELS 3 Zrotation Yrotation Xrotation
		JOINT RightUpLeg
		{
			OFFSET -1.73712 -1.40469 0.78906
			CHANNELS 3 Zrotation Yrotation Xrotation
			JOINT RightLeg
			{
				OFFSET -2.28137 -6.26801 0.00000
				CHANNELS 3 Zrotation Yrotation Xrotation
				JOINT RightFoot
				{
					OFFSET -2.28681 -6.28298 0.00000
					CHANNELS 3 Zrotation Yrotation Xrotation
					JOINT RightToeBase
					{
						OFFSET -0.15927 -0.43759 1.61103
						CHANNELS 3 Zrotation Yrotation Xrotation
						End Site
						{
							OFFSET -0.00000 -0.00000 0.84630
						}
					}
				}
			}
		}
	}
	JOINT LowerBack
	{
		OFFSET 0 0 0
		CHANNELS 3 Zrotation Yrotation Xrotation
		JOINT Spine
		{
			OFFSET -0.04227 2.04338 -0.00225
			CHANNELS 3 Zrotation Yrotation Xrotation
			JOINT Spine1
			{
				OFFSET -0.02148 2.04482 -0.04273
				CHANNELS 3 Zrotation Yrotation Xrotation
				JOINT Neck
				{
					OFFSET 0 0 0
					CHANNELS 3 Zrotation Yrotation Xrotation
					JOINT Neck1
					{
						OFFSET 0.09180 1.44629 0.19359
						CHANNELS 3 Zrotation Yrotation Xrotation
						JOINT Head
						{
							OFFSET 0.00887 1.40645 0.14750
							CHANNELS 3 Zrotation Yrotation Xrotation
							End Site
							{
								OFFSET -0.00669 1.50671 0.03707
							}
						}
					}
				}
				JOINT LeftShoulder
				{
					OFFSET 0 0 0
					CHANNELS 3 Zrotation Yrotation Xrotation
					JOINT LeftArm
					{
						OFFSET 2.17674 1.86763 -0.06520
						CHANNELS 3 Zrotation Yrotation Xrotation
						JOINT LeftForeArm
						{
							OFFSET 4.65776 -0.00000 0.00000
							CHANNELS 3 Zrotation Yrotation Xrotation
							JOINT LeftHand
							{
								OFFSET 3.55539 -0.00000 0.00000
								CHANNELS 3 Zrotation Yrotation Xrotation
								JOINT LeftFingerBase
								{
									OFFSET 0 0 0
									CHANNELS 3 Zrotation Yrotation Xrotation
									JOINT LeftHandIndex1
									{
										OFFSET 0.70726 -0.00000 0.00000
										CHANNELS 3 Zrotation Yrotation Xrotation
										End Site
										{
											OFFSET 0.57022 -0.00000 0.00000
										}
									}
								}
								JOINT LThumb
								{
									OFFSET 0 0 0
									CHANNELS 3 Zrotation Yrotation Xrotation
									End Site
									{
										OFFSET 0.57892 -0.00000 0.57892
									}
								}
							}
						}
					}
				}
				JOINT RightShoulder
				{
					OFFSET 0 0 0
					CHANNELS 3 Zrotation Yrotation Xrotation
					JOINT RightArm
					{
						OFFSET -2.80694 1.55459 -0.32496
						CHANNELS 3 Zrotation Yrotation Xrotation
						JOINT RightForeArm
						{
							OFFSET -4.71925 -0.00000 -0.00000
							CHANNELS 3 Zrotation Yrotation Xrotation
							JOINT RightHand
							{
								OFFSET -3.56990 -0.00000 0.00000
								CHANNELS 3 Zrotation Yrotation Xrotation
								JOINT RightFingerBase
								{
									OFFSET 0 0 0
									CHANNELS 3 Zrotation Yrotation Xrotation
									JOINT RightHandIndex1
									{
										OFFSET -0.50776 -0.00000 0.00000
										CHANNELS 3 Zrotation Yrotation Xrotation
										End Site
										{
											OFFSET -0.40937 -0.00000 0.00000
										}
									}
								}
								JOINT RThumb
								{
									OFFSET 0 0 0
									CHANNELS 3 Zrotation Yrotation Xrotation
									End Site
									{
										OFFSET -0.41562 -0.00000 0.41562
									}
								}
							}
						}
					}
				}
			}
		}
	}
}
MOTION
Frames: 12
Frame Time: .0083333
8.7043 16.3191 30.4822 0 0 0 0 0 0 -21 0 0 0 0 0 0 0 0 0 0 0 0 0 0 21 0 0 0 0 0 0 0 0 0 0 0 0 0 0 0 0 0 0 0 0 0 0 -16 0 0 21 0 0 11 0 0 0 -8 0 0 0 0 0 0 0 0 0 0 0 0 0 0 0 0 0 0 0 0 8 0 0 0 0 0 0 0 0 0 0 0 0 0 0 0 0 0
8.7043 16.3191 30.4822 -179.6630 0.9085 -151.9220 0.0000 0.0000 0.0000 -16.4344 -16.5758 -20.5765 0.1294 2.3190 6.3880 0.2261 1.7143 -9.7791 3.4154 -11.3389 -33.4314 0.0000 0.0000 0.0000 16.8660 15.0437 -21.9390 -0.1830 -2.7555 7.5989 -1.9843 -0.1629 -26.7319 -1.6578 8.1136 -23.0596 -3.7796 -2.0946 -30.0591 -0.1227 -0.4688 -2.8015 1.8326 0.0124 12.7045 -3.5048 -2.9093 0.9848 6.5463 -2.9859 -10.7944 2.8935 -1.3884 -3.5328 -0.0000 -0.0000 0.0000 -86.0761 -1.4157 22.2325 11.7200 -19.3833 -2.0084 -0.0000 -0.0000 6.7918 20.9340 -14.1947 -5.3590 -7.1250 0.0000 -0.0000 -4.4460 14.8584 3.1670 -0.0000 -0.0000 0.0000 92.1414 -2.2778 8.9805 -15.2439 24.4848 -3.3264 0.0000 0.0000 2.2089 -12.7677 -55.0688 10.5242 7.1250 -0.0000 -0.0000 74.8613 -76.4801 -61.0565
8.7065 16.3217 30.4819 -179.6810 0.8748 -151.9260 0.0000 0.0000 0.0000 -16.4927 -16.2354 -20.7872 0.1358 2.3748 6.5428 0.2201 1.3954 -9.4844 3.3811 -11.2879 -33.2570 0.0000 0.0000 0.0000 16.8266 15.1667 -21.8702 -0.1808 -2.7387 7.5521 -1.9922 -0.2147 -26.8026 -1.4453 7.6000 -21.5056 -3.8397 -2.1103 -29.9659 -0.1044 -0.4728 -2.8460 1.8839 0.0112 12.6139 -3.5502 -2.8935 1.1104 6.5904 -2.9596 -10.8832 2.9226 -1.3765 -3.5888 -0.0000 -0.0000 0.0000 -85.9153 -1.5247 22.4108 11.6837 -19.3286 -1.9964 -0.0000 -0.0000 7.4280 20.0308 -12.8519 -4.6362 -7.1250 0.0000 -0.0000 -5.0165 16.3647 3.4131 -0.0000 -0.0000 0.0000 92.1109 -2.3548 8.9961 -15.2554 24.5007 -3.3311 0.0000 0.0000 2.0998 -12.8348 -55.1896 10.5954 7.1250 -0.0000 -0.0000 75.3560 -76.5224 -61.5771
8.7075 16.3226 30.4782 -179.7130 0.8519 -151.9970 0.0000 0.0000 0.0000 -16.5590 -16.1590 -20.7015 0.1342 2.3614 6.5055 0.2163 1.3553 -9.3876 3.3509 -11.2425 -33.1021 0.0000 0.0000 0.0000 16.8426 15.0579 -21.8019 -0.1805 -2.7365 7.5461 -1.9962 -0.1866 -26.8201 -1.5133 7.7687 -22.0137 -3.8863 -2.1172 -29.8113 -0.0919 -0.4735 -2.9026 1.9232 0.0129 12.4823 -3.5917 -2.8956 1.3092 6.6227 -2.9598 -11.0099 2.9509 -1.3792 -3.6710 0.0000 0.0000 0.0000 -85.8989 -1.4761 22.9762 11.6013 -19.2040 -1.9692 -0.0000 -0.0000 6.1538 20.3429 -12.9114 -4.7358 -7.1250 0.0000 -0.0000 -4.8027 16.2728 3.2762 0.0000 0.0000 0.0000 92.0667 -2.5266 9.0011 -15.2798 24.5345 -3.3413 0.0000 0.0000 2.0037 -12.8513 -55.1600 10.6054 7.1250 -0.0000 -0.0000 75.2299 -76.5245 -61.4584
8.7078 16.3222 30.4743 -179.6900 0.8273 -152.0630 0.0000 0.0000 0.0000 -16.5794 -15.9936 -20.6831 0.1365 2.3810 6.5597 0.2199 1.1967 -9.3785 3.5320 -11.5102 -34.0205 0.0000 0.0000 0.0000 16.9117 14.9792 -21.7277 -0.1816 -2.7448 7.5691 -2.0016 -0.0915 -26.8247 -1.5004 7.7370 -21.9182 -3.8586 -2.1070 -29.7197 -0.0887 -0.4788 -2.9061 1.9098 0.0107 12.4382 -3.5584 -2.8989 1.3909 6.6260 -2.9561 -11.1035 2.9508 -1.3786 -3.7203 -0.0000 -0.0000 0.0000 -85.8636 -1.4917 22.5607 11.6380 -19.2596 -1.9813 -0.0000 -0.0000 7.4478 19.6702 -12.4103 -4.3930 -7.1250 0.0000 -0.0000 -5.2542 16.8615 3.5193 -0.0000 -0.0000 0.0000 92.0782 -2.5846 8.9591 -15.2784 24.5325 -3.3407 0.0000 0.0000 2.0136 -12.8734 -55.1504 10.6227 7.1250 -0.0000 -0.0000 75.1862 -76.5315 -61.4243
8.7094 16.3219 30.4739 -179.6230 0.8394 -152.1260 0.0000 0.0000 0.0000 -16.4875 -16.0164 -20.5650 0.1335 2.3551 6.4881 0.2187 1.3203 -9.4176 3.4563 -11.3994 -33.6391 0.0000 0.0000 0.0000 16.9977 15.1637 -21.6445 -0.1867 -2.7831 7.6756 -1.9863 -0.3327 -26.8018 -1.5775 7.9242 -22.4841 -3.8071 -2.0888 -29.4866 -0.1300 -0.5000 -3.2834 1.9510 -0.0120 12.6941 -3.5312 -2.8994 1.3363 6.6126 -2.9456 -11.1619 2.9409 -1.3704 -3.7312 -0.0000 -0.0000 0.0000 -85.7850 -1.3590 22.9183 11.7095 -19.3676 -2.0049 -0.0000 -0.0000 7.1524 20.0162 -12.7761 -4.6058 -7.1250 0.0000 -0.0000 -5.0243 16.4458 3.4096 -0.0000 -0.0000 0.0000 92.1165 -2.5212 8.9114 -15.2586 24.5051 -3.3325 0.0000 0.0000 2.0949 -12.9002 -55.1915 10.6502 7.1250 -0.0000 -0.0000 75.3545 -76.5471 -61.6030
8.7119 16.3240 30.4757 -179.5670 0.8862 -152.1300 0.0000 0.0000 0.0000 -16.3825 -15.9503 -20.6533 0.1372 2.3875 6.5779 0.2187 1.3237 -9.4202 3.3141 -11.1870 -32.9130 0.0000 0.0000 0.0000 17.0484 15.3607 -21.7184 -0.1954 -2.8467 7.8523 -1.2016 -2.4206 -21.7084 -2.8402 10.4318 -30.3867 -3.8035 -2.0937 -29.3709 -0.0995 -0.5237 -3.2861 1.9743 -0.0250 12.6325 -3.5151 -2.9005 1.2652 6.6135 -2.9322 -11.2335 2.9377 -1.3597 -3.7436 0.0000 -0.0000 0.0000 -85.6790 -1.0965 24.1485 11.7744 -19.4654 -2.0265 -0.0000 -0.0000 5.1110 20.8781 -14.0976 -5.3078 -7.1250 0.0000 -0.0000 -4.4800 14.9670 3.1809 0.0000 -0.0000 0.0000 92.1251 -2.4869 8.9116 -15.2428 24.4832 -3.3259 0.0000 0.0000 2.1902 -12.9448 -55.2372 10.6932 7.1250 -0.0000 -0.0000 75.5400 -76.5700 -61.8063
8.7138 16.3261 30.4754 -179.5480 0.9316 -152.0720 0.0000 0.0000 0.0000 -16.2959 -16.0613 -20.6956 0.1375 2.3904 6.5858 0.2181 1.4526 -9.4767 3.4066 -11.3258 -33.3866 0.0000 0.0000 0.0000 17.0433 15.4034 -21.8454 -0.1992 -2.8741 7.9283 -1.1768 -2.6376 -21.5975 -3.2457 11.0826 -32.5589 -3.8269 -2.1071 -29.3891 -0.0800 -0.5358 -3.2838 2.0055 -0.0327 12.6459 -3.4910 -2.8622 1.1734 6.5680 -2.8805 -11.2113 2.9128 -1.3310 -3.7217 -0.0000 -0.0000 0.0000 -85.6332 -1.0503 24.1992 11.9087 -19.6676 -2.0715 -0.0000 -0.0000 5.9796 20.8909 -12.3755 -4.6764 -7.1250 0.0000 -0.0000 -4.4053 16.7880 2.9540 -0.0000 -0.0000 0.0000 92.1204 -2.4504 8.8882 -15.2195 24.4510 -3.3163 0.0000 0.0000 2.2897 -12.9834 -55.2280 10.7242 7.1250 -0.0000 -0.0000 75.4964 -76.5833 -61.7791
8.7158 16.3279 30.4740 -179.5790 0.9475 -152.0210 0.0000 0.0000 0.0000 -16.3235 -15.9936 -20.7888 0.1378 2.3929 6.5929 0.2197 1.3663 -9.4610 3.5165 -11.4876 -33.9427 0.0000 0.0000 0.0000 16.9764 15.4659 -21.8867 -0.2004 -2.8827 7.9524 -1.1804 -2.6468 -21.6326 -3.1918 10.9993 -32.2775 -3.8498 -2.1144 -29.4155 -0.1123 -0.5329 -3.2682 1.9826 -0.0328 12.6778 -3.4977 -2.8424 1.0374 6.5583 -2.8618 -11.0784 2.9025 -1.3204 -3.6497 0.0000 0.0000 0.0000 -85.6049 -1.0615 24.4734 11.7979 -19.5009 -2.0343 -0.0000 -0.0000 4.6842 21.4719 -13.4421 -5.2245 -7.1250 0.0000 -0.0000 -4.0449 15.5998 2.8153 0.0000 0.0000 0.0000 92.2022 -2.3815 8.7863 -15.1930 24.4143 -3.3053 0.0000 0.0000 2.3671 -12.9882 -55.1463 10.7179 7.1250 -0.0000 -0.0000 75.1524 -76.5740 -61.4390
8.7180 16.3307 30.4734 -179.6760 0.9880 -151.9700 0.0000 0.0000 0.0000 -16.4043 -16.1382 -20.7695 0.1347 2.3658 6.5176 0.2148 1.5195 -9.4467 3.4764 -11.4290 -33.7409 0.0000 0.0000 0.0000 16.8592 15.3317 -22.0482 -0.2044 -2.9113 8.0319 -1.1949 -2.4559 -21.6672 -3.1597 10.9492 -32.1089 -3.9347 -2.1350 -29.4192 -0.1564 -0.5243 -3.2678 1.9842 -0.0313 12.6805 -3.5250 -2.8247 0.9783 6.5525 -2.8412 -11.0346 2.9022 -1.3083 -3.6240 -0.0000 -0.0000 0.0000 -85.6300 -1.0296 24.2787 11.8086 -19.5170 -2.0379 -0.0000 -0.0000 4.7459 21.1804 -13.4620 -5.1545 -7.1250 0.0000 -0.0000 -4.2460 15.6086 2.9552 -0.0000 -0.0000 0.0000 92.2566 -2.3651 8.7605 -15.1913 24.4119 -3.3046 0.0000 0.0000 2.3746 -13.0153 -55.1206 10.7372 7.1250 -0.0000 -0.0000 75.0402 -76.5806 -61.3387
8.7188 16.3303 30.4702 -179.7120 1.0231 -151.9590 0.0000 0.0000 0.0000 -16.4581 -16.1177 -20.7770 0.1350 2.3683 6.5246 0.2166 1.4709 -9.4558 3.3317 -11.2136 -33.0036 0.0000 0.0000 0.0000 16.8677 15.0735 -22.2242 -0.2108 -2.9561 8.1566 -1.2055 -2.1842 -21.6335 -3.1524 10.9377 -32.0701 -3.9957 -2.1455 -29.4271 -0.1409 -0.5192 -3.2723 2.0396 -0.0321 12.6800 -3.6190 -2.7661 1.0597 6.5403 -2.7743 -11.0374 2.9160 -1.2742 -3.6440 -0.0000 -0.0000 0.0000 -85.8172 -0.9502 23.3385 11.9390 -19.7132 -2.0817 -0.0000 -0.0000 7.0691 20.1642 -12.0345 -4.3784 -7.1250 0.0000 -0.0000 -4.9008 17.2137 3.2429 -0.0000 -0.0000 0.0000 92.2062 -2.4258 8.8278 -15.2211 24.4532 -3.3169 0.0000 0.0000 2.3134 -13.0668 -55.1607 10.7853 7.1250 -0.0000 -0.0000 75.2014 -76.6056 -61.5208
8.7197 16.3282 30.4650 -179.6210 0.9580 -151.9960 0.0000 0.0000 0.0000 -16.3484 -16.0714 -20.7334 0.1352 2.3699 6.5292 0.2193 1.4296 -9.4875 3.3524 -11.2448 -33.1099 0.0000 0.0000 0.0000 16.9515 15.3761 -22.0206 -0.2093 -2.9458 8.1278 -1.2142 -2.3509 -21.7834 -2.9151 10.5564 -30.7978 -3.9356 -2.1444 -29.3724 -0.0822 -0.5476 -3.2965 2.0615 -0.0419 12.6246 -3.6793 -2.7411 1.1938 6.5639 -2.7487 -11.0572 2.9391 -1.2642 -3.6778 -0.0000 0.0000 0.0000 -85.9633 -0.7931 22.8803 11.9796 -19.7740 -2.0954 -0.0000 -0.0000 8.1187 20.4949 -12.5370 -4.6386 -7.1250 0.0000 -0.0000 -4.6854 16.6538 3.1568 -0.0000 0.0000 0.0000 92.1682 -2.5634 8.8515 -15.2495 24.4926 -3.3287 0.0000 0.0000 2.2813 -13.1128 -55.1713 10.8251 7.1250 -0.0000 -0.0000 75.2400 -76.6243 -61.5785
